<?xml version="1.0" encoding="utf-8"?>
<!-- Generator: Adobe Illustrator 24.3.0, SVG Export Plug-In . SVG Version: 6.00 Build 0)  -->
<svg version="1.1" id="Capa_1" xmlns="http://www.w3.org/2000/svg" xmlns:xlink="http://www.w3.org/1999/xlink" x="0px" y="0px"
	 viewBox="0 0 1920 1080" style="enable-background:new 0 0 1920 1080;" xml:space="preserve">
<style type="text/css">
	.st0{fill:#FFFFFF;}
</style>
<g>
	<path d="M1055.58,615.49c0.02,0,0.03,0,0.03,0.01c0.12,0.43-54.15,19.36-89.08,26.83c-17.82,3.81-39.74,15.22-39.71,15.31
		c0,0,0.02,0,0.02,0c17.55-3.75,180.84-51.53,198.39-55.29c8.16-1.75,16.42-3.06,24.58-4.8c2.86-0.61,5.5-2.23,8.36-2.88
		c9.55-2.15,19.2-3.82,28.7-6.16c4.62-1.14,8.98-3.33,13.46-5.05c0.3-0.12,0.54-0.45,0.84-0.51c5.67-1.13,11.39-2.04,17.01-3.38
		c6.01-1.43,11.95-3.15,17.87-4.92c5.23-1.56,11.02-2.4,15.44-5.29c6.29-4.11,13.53-2.9,20.15-4.96
		c10.49-3.26,21.16-8.17,32.84-6.88c1.97,0.22,4.04-0.49,6.84-0.88c-11.02,9.23-7.74,22.51-12.81,33.5
		c9.21-0.28,16.38-3.14,23.43-6.9c6.71-3.58,13.97-6.12,20.77-9.56c5.71-2.89,10.92-6.82,16.7-9.55c5.65-2.67,11.75-4.38,17.65-6.53
		c3.61-1.32,7.25-2.59,10.81-4.02c4.61-1.85,9.11-3.97,13.76-5.72c3.01-1.13,6.16-1.91,9.3-2.66c5.35-1.28,10.8-2.18,16.09-3.66
		c4.92-1.38,9.69-3.3,14.52-4.98c3.76-1.31,7.49-2.69,11.27-3.91c6.27-2.03,12.46-4.46,18.88-5.8c8.14-1.7,14.83-7.15,23.62-7.57
		c6.16-0.29,12.18-3.54,18.28-5.42c0.78-0.24,1.65-0.15,2.47-0.27c7.06-1.04,14.28-1.48,21.14-3.28c8.84-2.32,17.33-5.92,26.09-8.62
		c5.13-1.58,10.57-2.16,15.67-3.8c3.16-1.01,5.95-3.16,8.9-4.8c0.42,0.35,0.83,0.7,1.25,1.04c-1.66,5.47-3.32,10.94-4.99,16.41
		c-6.17,20.21-12.3,40.43-18.51,60.63c-6.61,21.48-13.42,42.91-19.91,64.43c-4.13,13.71-7.94,27.52-11.64,41.35
		c-0.96,3.59-2.55,4.21-6.23,4.41c-12.27,0.66-24.7,1.09-36.69,3.52c-26.27,5.31-52.41,11.36-78.37,18.01
		c-10.4,2.66-20.12,7.92-30.29,11.59c-28.67,10.35-57.48,20.3-86.11,30.76c-23.47,8.57-46.76,17.62-70.11,26.51
		c-4.64,1.77-9.17,3.8-14.84,6.16c0.38-6.45,0.7-12.01,1.06-18.04c-230.35,65.94-460.44,131.8-690.53,197.67
		c-0.33-0.46-0.65-0.92-0.98-1.38c3.95-10.29,10.29-20.09,6.77-32.96c-51.36,13.37-103.07,26.12-156.96,35.47
		c1.38-1.88,1.72-2.87,2.26-3c5.85-1.36,11.75-2.47,17.58-3.92c2.11-0.52,3.96-2.05,6.07-2.62c5.43-1.47,11-2.46,16.41-4.02
		c5.19-1.49,10.23-3.51,15.38-5.17c4.26-1.37,8.59-2.52,12.87-3.83c5.32-1.64,10.61-3.35,15.91-5.05c0.77-0.25,1.49-0.68,2.26-0.92
		c6.96-2.14,13.89-4.37,20.9-6.33c5.1-1.43,10.35-2.36,15.46-3.79c5.67-1.59,11.24-3.5,16.86-5.28c0.63-0.2,1.23-0.48,1.87-0.62
		c4.86-1.06,9.74-2.04,14.58-3.21c0.83-0.2,1.58-1.09,2.17-1.82c4.94-6.08,7.72-12.71,4.68-21.13c-10.68,2.86-21.48,5.9-32.36,8.63
		c-28.91,7.26-57.81,14.59-86.81,21.48c-21.05,5-42.25,9.35-63.4,13.95c-2.76,0.6-5.56,1.14-8.37,1.31
		c-1.31,0.08-2.68-0.77-4.03-1.2c0.03-0.49,0.05-0.98,0.08-1.47c5.36-1.26,10.72-2.52,16.09-3.78c0.46-0.11,1-0.14,1.37-0.4
		c6.05-4.29,13.21-4.94,20.16-6.52c4.75-1.08,9.17-3.52,13.8-5.18c3.19-1.15,6.45-2.12,9.72-2.98c5.13-1.34,10.35-2.34,15.44-3.81
		c5.73-1.65,11.34-3.72,17.04-5.47c4.7-1.44,9.48-2.58,14.18-4.03c4.46-1.38,8.84-3.02,13.28-4.48c2.28-0.75,4.61-1.36,6.92-2
		c6.53-1.8,13.08-3.54,19.6-5.38c4.01-1.13,7.99-2.38,11.98-3.6c2.89-0.88,5.73-1.95,8.66-2.68c5.65-1.4,11.64-1.9,16.94-4.11
		c6.78-2.83,16.11-2.32,18.88-11.26c1.14-3.67,0.19-7.99,0.19-12.79c-69.93,18.32-138.7,36.71-208.9,48.83
		c-0.2-0.6-0.39-1.2-0.59-1.8c4.07-1.38,8.11-2.82,12.2-4.12c5.8-1.85,11.62-3.6,17.43-5.41c3.81-1.19,7.61-2.41,11.42-3.6
		c3.19-0.99,6.35-2.12,9.59-2.88c5.2-1.21,10.48-2.1,15.7-3.25c1.22-0.27,2.31-1.1,3.52-1.51c1.82-0.62,3.68-1.12,5.54-1.64
		c1.24-0.35,2.56-0.51,3.74-1c4.42-1.85,8.73-4.01,13.23-5.64c3.63-1.32,7.46-2.16,11.25-2.99c5.49-1.2,11.11-1.9,16.53-3.38
		c4.17-1.14,8.11-3.14,12.15-4.78c0.6-0.25,1.12-0.8,1.73-0.92c5.91-1.1,11.93-1.77,17.71-3.31c5.75-1.54,11.26-3.97,16.9-5.98
		c2.59-0.92,5.17-1.89,7.83-2.58c5.84-1.53,11.76-2.75,17.56-4.39c5.25-1.48,10.31-3.67,15.6-4.93c4.98-1.18,7.9-4.01,8.63-8.83
		c0.46-3.02,0.08-6.17,0.08-10.67c-50.32,11.87-98.94,28.38-149.6,36.02c-0.23-0.38-0.46-0.76-0.69-1.13
		c1.53-1.25,2.86-2.96,4.61-3.67c8.19-3.31,16.36-6.76,24.78-9.37c8.48-2.63,17.39-3.9,25.85-6.58c7.44-2.36,14.46-5.99,21.78-8.76
		c4.35-1.65,8.92-2.75,13.4-4.07c4.15-1.23,8.32-2.36,12.45-3.64c5.63-1.74,11.22-3.6,16.84-5.39c3.82-1.22,7.6-2.62,11.49-3.57
		c4.23-1.03,8.54-2.09,12.86-2.31c7.25-0.37,13.09-5.63,13.88-12.87c0.84-7.65,1.92-15.28,3.1-22.88c0.52-3.34,2.92-4.71,6.22-5.47
		c6.74-1.55,13.37-3.6,20.03-5.49c3.89-1.1,7.8-2.17,11.63-3.45c5.76-1.92,11.47-3.98,17.19-6.03c6.42-2.29,12.77-4.8,19.24-6.91
		c19.89-6.49,39.84-12.83,59.75-19.26c2.34-0.76,4.63-1.67,6.94-2.51c-0.03-0.47-0.06-0.94-0.09-1.4c-1.8,0-3.68-0.34-5.38,0.06
		c-6.47,1.51-13.09,2.71-19.28,5.02c-19.92,7.42-40.76,9.68-61.65,11.98c-4.14,0.46-8.61,1.78-12.04,4.05
		c-13.48,8.89-28.46,13.79-43.98,17.14c-11.21,2.41-22.19,0.06-32.88-3.64c-1.41-0.49-2.81-1.01-4.23-1.46
		c-0.27-0.09-0.63,0.1-1.4,0.24c-0.95,3.61-1.27,7.77-3.06,11.15c-8.28,15.67-18.78,29.44-34.66,38.33
		c-14.24,7.98-29.73,12.59-45.31,16.89c-13.47,3.72-26.94,7.62-40.63,10.29c-16.56,3.23-31.4-0.08-43.85-12.98
		c-6.46-6.7-11.67-14.09-14.58-22.41c-2.88-8.22-4.01-17.38-4.21-26.16c-0.52-23.49-0.37-47,0.02-70.49
		c0.13-8.04-1.74-14.78-7.14-20.75c-2.05-2.26-3.55-5.16-4.72-8c-0.41-1,0.57-3.01,1.51-4c0.78-0.82,2.41-1.02,3.7-1.15
		c7.53-0.75,15.12-1.13,22.6-2.19c4.06-0.58,8.09-1.95,11.89-3.53c9.1-3.78,18.07-7.87,27.07-11.9c4.18-1.87,4.84-5.76,1.56-9.24
		c-7.51-7.96-15.47-15.52-22.53-23.86c-9.12-10.79-17.97-21.88-26.02-33.47c-2.72-3.91-4.81-8.84-4.51-14.64
		c0.29-5.68-2.61-11.47-2.77-17.25c-0.58-22.31-0.79-44.63-0.73-66.95c0.01-4.41,1.94-8.81,2.84-13.24
		c0.34-1.67,0.23-3.43,0.37-5.15c0.09-1.07,0.02-2.25,0.44-3.2c3.07-7.04,5.69-14.36,9.56-20.95c3.06-5.22,7.14-10.15,11.73-14.09
		c6.37-5.46,13.31-10.49,20.65-14.52c6.06-3.32,13.07-4.88,19.64-7.28c3.34-1.22,6.62-2.61,9.95-3.85
		c4.77-1.78,9.57-3.49,14.35-5.23c0.47-0.17,0.9-0.5,1.38-0.56c8.46-1.07,16.94-2.02,25.38-3.22c2.85-0.4,5.57-1.73,8.41-2.11
		c7.27-0.97,14.6-2.43,21.73,0.97c3.19,1.52,6.44,3.57,9.81,3.91c6.97,0.71,10.64,5.37,14.48,10.14c1.98,2.45,3.78,5.08,5.96,7.33
		c5.98,6.17,10.58,6.69,18.33,2.42c0.43-0.24,0.91-0.41,1.38-0.53c8.34-2.1,16.76-3.92,24.98-6.38c5.59-1.67,10.82-4.53,16.38-6.3
		c4.87-1.55,10.06-2.08,14.98-3.49c5.19-1.49,10.23-3.48,15.33-5.26c0.31-0.11,0.58-0.37,0.89-0.43c5.85-1.1,11.73-2.04,17.54-3.3
		c4.7-1.02,9.31-2.44,13.98-3.62c3.27-0.83,6.59-1.48,9.85-2.35c3.88-1.04,7.76-2.09,11.56-3.38c5.37-1.83,10.62-4.01,16-5.83
		c4.16-1.41,8.36-2.99,12.67-3.58c4.4-0.6,8.52-1.26,12.85-2.72c6.83-2.3,14.43-2.24,21.63-3.58c5.08-0.95,10.03-2.56,15.05-3.87
		c2.64-0.69,5.31-1.31,7.92-2.08c5.21-1.54,10.38-3.16,15.58-4.74c2.47-0.75,4.92-1.56,7.42-2.22c2.67-0.71,5.37-1.32,8.08-1.88
		c2.24-0.46,4.53-0.68,6.76-1.17c2.5-0.55,4.96-1.25,7.43-1.94c0.95-0.26,1.83-0.81,2.79-0.97c6.23-1.08,12.56-1.71,18.68-3.22
		c5.51-1.36,10.79-3.68,16.17-5.55c0.46-0.16,0.97-0.25,1.47-0.26c7.74-0.16,14.67-3.16,21.81-5.71c5.86-2.09,12.22-2.73,18.24-4.42
		c5.52-1.55,10.89-3.65,16.33-5.5c0.46-0.16,0.95-0.36,1.42-0.37c7.89-0.18,14.94-3.4,22.3-5.74c5.91-1.88,12.4-1.89,18.42-3.51
		c2.82-0.76,5.87-2.85,7.55-5.23c3.31-4.67,4.84-10.2,12.27-11.02c6.57-0.73,12.93-3.59,19.33-5.67c4.69-1.53,9.23-3.51,13.94-4.94
		c2.63-0.8,5.48-1.64,8.08-2.5c4.95-1.64,9.82-2.72,14.74-4.5c4.09-1.48,8.27-2.68,12.43-3.96c6.36-1.96,12.69-4.03,19.11-5.77
		c4.94-1.33,10.09-2.66,14.99-4.1c4.85-1.42,9.46-2.89,14.28-4.46c2.62-0.85,5.45-1.02,8.13-1.69c4.2-1.04,8.34-2.29,12.54-3.31
		c1.01-0.25,2.28-0.27,3.22,0.12c7.87,3.25,14.94,1.22,22.32-2.17c4.71-2.16,10.29-2.33,15.38-3.78c5.18-1.47,10.22-3.46,15.35-5.11
		c3.67-1.18,7.36-2.38,11.13-3.21c6.29-1.37,12.61-3.06,18.98-3.48c6.57-0.43,13.22,0.57,19.84,0.75c1.09,0.03,2.74-0.65,3.22-1.51
		c3.97-7.14,11.21-7.72,17.98-9.48c5.69-1.48,11.27-3.37,16.89-5.09c0.78-0.24,1.52-0.59,2.29-0.83c6.13-1.88,12.23-3.89,18.41-5.58
		c5.01-1.37,10.15-2.22,15.17-3.52c5.82-1.5,11.55-3.33,17.35-4.87c7.58-2,15.24-3.91,23.13-2c4.8,1.16,6.59,0.29,7.83-4.58
		c1.9-7.45,1.98-6.79,9.71-7.74c6.62-0.81,13.03-3.33,19.51-5.16c3.43-0.97,6.78-2.23,10.23-3.09c5.6-1.39,11.26-2.49,16.86-3.85
		c1.58-0.38,3.03-1.26,4.58-1.83c1.8-0.66,3.62-1.23,5.45-1.81c1.65-0.53,3.32-0.98,4.95-1.57c0.6-0.22,1.05-1.03,1.62-1.1
		c12.42-1.48,24.34-5.55,37.37-4.06c10.45,1.2,18.51,4.92,25.48,12.29c0.87,0.92,3.91,1.44,4.12,1.08c1.16-1.99,2.47-4.34,2.41-6.52
		c-0.13-4.76-1.3-9.48-1.58-14.25c-0.39-6.75,3.47-10.74,10.21-11.01c7.35-0.3,14.08-2.76,20.82-5.45
		c3.85-1.54,7.96-2.41,11.96-3.57c6.41-1.87,12.81-3.81,19.25-5.6c3.9-1.08,7.84-2.02,11.79-2.89c5.75-1.27,11.53-2.39,17.28-3.64
		c1.11-0.24,2.13-0.91,3.23-1.22c4.28-1.23,8.58-2.39,13.24-3.68c0.43,2.2,0.69,2.97,0.71,3.74c0.94,29.64,2.12,59.28,2.71,88.93
		c0.86,42.86,3.9,85.52,9.24,128.05c2.16,17.17,2.95,34.52,5.35,51.65c1.16,8.24,4.58,16.16,7.04,24.21
		c1.16,3.8,2.58,7.53,3.69,11.34c2.94,10.09,9,18.08,16.58,25.09c1.68,1.55,3.31,3.16,5.5,5.26c-1.72,0.62-2.7,1.27-3.69,1.3
		c-21.13,0.51-40.94,7.09-60.78,13.41c-13.15,4.19-26.12,8.92-39.18,13.4c-0.78,0.27-1.6,0.76-2.37,0.7
		c-11.02-0.77-20.78,3.93-30.99,6.86c-36.81,10.57-73.69,20.92-110.59,31.17c-14.11,3.92-28.46,7.01-42.53,11.08
		c-11.82,3.41-23.22,8.34-35.1,11.44c-28.19,7.36-56.46,14.52-84.92,20.71c-8.44,1.84-16.28,4.29-23.86,8.13
		c-13.51,6.85-28.04,10.67-42.79,13.38 M1215.87,247.93c1.18,1.44,1.72,2.49,2.58,3.09c5.09,3.57,7.14,8.54,7.2,14.6
		c0.06,6.33,0.45,12.66,0.42,18.98c-0.27,74.99-0.57,149.97-0.95,224.96c-0.03,5.14-0.13,10.43-1.33,15.37
		c-1.02,4.18-3.67,7.97-5.87,12.47c15.69-4.57,30.97-9.01,46.82-13.62c-7.02-5.55-5.21-13.46-5.3-20.72
		c-0.26-21.99-0.23-43.99-0.12-65.99c0.04-7.32,0.44-14.67,1.18-21.95c0.16-1.61,2.45-3,3.75-4.5c1.21,1.28,3.08,2.36,3.52,3.86
		c6.91,24,13.76,48.03,20.36,72.12c2.66,9.7,4.69,19.57,6.88,28.81c13.01-2.92,26.35-5.6,39.51-8.95
		c15.65-3.99,31.14-8.61,46.72-12.86c3.36-0.92,3.8-2.62,1.47-4.86c-3.61-3.47-4.1-7.83-4.13-12.41
		c-0.16-32.5-0.33-64.99-0.46-97.49c-0.01-1.66-0.2-3.57,0.54-4.9c0.79-1.41,2.46-2.65,4.01-3.15c0.56-0.18,2.22,1.87,2.77,3.16
		c0.91,2.12,1.33,4.46,1.97,6.7c8.31,29.32,16.68,58.62,24.87,87.97c1.31,4.7,1.83,9.62,2.85,15.21c2.48-0.6,5.67-1.23,8.78-2.14
		c16.94-4.95,33.85-10,50.8-14.93c7.68-2.24,7.68-2.16,6.87-9.92c-0.17-1.65-0.31-3.35-0.14-4.99c1.42-14.09,2.84-28.17,4.47-42.24
		c0.19-1.61,1.29-3.93,2.58-4.48c9.56-4.07,19.27-7.78,29.17-11.7c0.33,1.26,0.65,2.03,0.71,2.81c1.22,15.28,2.58,30.56,3.41,45.86
		c0.14,2.49-2.07,5.13-3.27,7.66c-0.62,1.31-1.41,2.55-2.76,4.97c16.73-5.03,32-9.62,47.4-14.24c-1.69-3.07-4.09-6.04-5-9.41
		c-1.9-7.04-3.65-14.24-4.33-21.48c-2.18-23.05-3.96-46.14-5.69-69.23c-4.02-53.5-7.97-107.01-11.8-160.53
		c-0.56-7.89-1.85-15.97,2.11-23.53c0.15-0.28-0.31-0.87-0.16-0.49c-20,5.13-39.8,10.2-59.36,15.22c4.02,2.71,6.25,6.77,5.37,12.65
		c-5.15,34.44-10.5,68.85-15.03,103.37c-6.63,50.55-12.58,101.18-18.96,151.76c-0.74,5.84-2.31,11.58-3.79,18.8
		c-1.31-2.28-1.95-3.02-2.19-3.88c-2.57-9.31-5.08-18.64-7.61-27.97c-5.64-20.69-7.56-42.39-16.85-62.12
		c-0.43-0.92,0.59-3.23,1.61-4.01c17.08-13.1,24.28-30.67,24.16-51.81c-0.12-21.83,0.14-43.66-0.01-65.49
		c-0.06-8.82-0.54-17.66-1.26-26.45c-0.7-8.64-4.6-15.5-12.44-19.88c-8.58-4.79-17.44-4.63-26.65-2.27
		c-22.57,5.8-45.18,11.43-67.76,17.17c-0.85,0.22-1.58,0.9-2.4,1.38c0.33,0.78,0.39,1.42,0.73,1.64c8.05,5.08,8.73,12.89,8.68,21.45
		c-0.38,56.16-0.46,112.31-0.75,168.47c-0.14,27.33-0.45,54.66-0.8,81.98c-0.04,3.3,0.09,7.09-1.44,9.74
		c-1.66,2.86-4.94,5.17-8.04,6.52c-0.8,0.35-4.49-3.51-5.27-5.94c-5.28-16.32-10.14-32.78-15.11-49.2
		c-4.35-14.34-8.24-28.84-13.25-42.94c-1.59-4.49-1.47-6.5,2.26-9.31c18.37-13.87,26.63-32.13,25.61-55.47
		c-0.92-21.11,0.23-42.31,0.28-63.48c0.02-7.65,0.29-15.42-0.93-22.91c-3.09-19.03-18.09-28.82-36.96-24.76
		c-4.72,1.01-9.37,2.34-14.02,3.66c-15.55,4.41-31.06,8.94-46.63,13.28C1225.23,246.22,1220.86,246.89,1215.87,247.93z
		 M980.92,292.49c0.87,4.37,2.42,8.48,2.41,12.59c-0.33,72.99-0.86,145.99-1.34,218.98c-0.16,24.83-0.35,49.66-0.44,74.49
		c-0.03,7.61-3.01,13.07-11.09,16.09c-1.43-3.61-3.19-7.01-4.14-10.61c-7.37-27.85-14.56-55.76-21.87-83.63
		c-1.64-6.27-3.74-12.42-5.22-18.72c-0.31-1.33,0.68-3.79,1.83-4.52c16.2-10.3,23.64-25.16,23.7-44.11
		c0.08-27.83,0.32-55.66,0.34-83.5c0-6.32-0.25-12.69-1.04-18.95c-1.58-12.52-8.87-20.45-21.36-21.42
		c-7.43-0.58-15.26,0.75-22.57,2.59c-21.94,5.54-43.7,11.75-65.53,17.74c-0.37,0.1-0.61,0.67-1.35,1.53
		c10.62,5.37,10.66,15.25,10.85,25.05c0.06,3.33,0.02,6.67,0,10c-0.47,75.32-0.95,150.65-1.43,225.97
		c-0.03,5.16,0.11,10.35-0.31,15.49c-0.56,6.86-5.85,12.56-13.21,14.01c0-12.25,0-24.35,0-35.93c-5.59,2.66-10.57,5.59-15.92,7.45
		c-10.07,3.49-20.34,6.38-30.55,9.45c-3.39,1.02-6.86,1.8-10.39,2.72c-0.26-1.35-0.43-1.83-0.43-2.31
		c-0.17-28.49-0.29-56.99-0.56-85.48c-0.03-2.81,1.09-3.69,3.53-4.38c11.86-3.33,23.65-6.94,35.52-10.22
		c3.51-0.97,4.88-2.82,4.85-6.36c-0.06-8,0.11-16,0.17-23.99c0.03-3.91,0-7.82,0-11.65c-15.22,5.13-29.38,9.91-43.65,14.72
		c-0.54-1.88-0.8-2.35-0.79-2.82c0.39-28.33,0.75-56.66,1.34-84.98c0.03-1.32,1.88-3.36,3.26-3.76c7.36-2.11,14.84-3.78,22.27-5.64
		c9.42-2.37,18.83-4.78,28.43-7.22c0-11.64,0-24.36,0-37.75c-32.74,9.01-64.66,17.79-97.53,26.83c11.06,5.49,10.03,15.53,9.94,25.24
		c-0.46,49.66-1.04,99.31-1.34,148.97c-0.19,32.66,0.03,65.33,0.05,97.99c0.01,6.39,0.03,12.79-5.99,17.11
		c-0.4,0.29-0.41,1.11-0.52,1.43c50.34-13.09,100.62-26.16,152.19-39.56c-6.47-3.88-6.33-9.84-6.29-15.6
		c0.2-32.16,0.55-64.33,0.78-96.49c0.03-4.47,1.84-7.22,6.8-8.07c10,37.26,19.99,74.48,30.12,112.23c0.56-0.09,2.18-0.23,3.75-0.61
		c8.41-2.06,16.8-4.22,25.22-6.26c1.41-0.34,3.18-0.89,4.33-0.35c4.96,2.3,9.42,0.44,14.03-1.05c5.22-1.69,10.46-3.31,15.75-4.75
		c8.89-2.41,17.82-4.65,27.71-7.21c-7.7-8.11-6.49-17.66-6.54-26.95c-0.13-27.67-0.2-55.33-0.42-83c-0.02-2.75,0.64-4.02,3.4-5.04
		c10.31-3.82,20.63-7.67,30.64-12.18c26.86-12.11,40.49-33.05,40.54-62.61c0.04-18.83-0.08-37.67-0.13-56.5
		c-0.06-20.66,0.21-41.34-0.29-61.99c-0.43-17.79-13.64-31.53-34.94-25.02C1031.87,277.75,1006.1,285.1,980.92,292.49z
		 M360.92,685.07c8.6,6.54,5.91,15.35,6.29,23.44c0.14,2.99-0.06,6-0.01,9c0.33,19.49,0.09,39.01,1.21,58.45
		c0.93,16.22,15.61,27.34,31.58,24.12c24.02-4.84,47.96-10.73,70.16-21.23c15.52-7.34,26.08-20.06,26.18-38.33
		c0.19-33.32-0.49-66.65-0.44-99.97c0.01-7.21-2.01-13.01-7.22-17.83c-2.08-1.92-3.99-4.03-6.14-5.87
		c-17.2-14.75-34.51-29.37-51.63-44.2c-7.55-6.54-14.81-13.42-22.05-20.31c-3.18-3.02-5.2-6.51-5.08-11.41
		c0.49-19.65,0.66-39.31,0.8-58.97c0.09-12.33,2.64-16.58,14.33-21c8.09-3.06,16.36-5.68,24.65-8.12
		c8.67-2.55,11.85,0.03,11.77,9.04c-0.19,20.5-0.41,40.99-0.61,61.49c-0.02,1.59,0,3.17,0,4.96c1.38,0,2.08,0.18,2.64-0.03
		c12.06-4.36,24.13-8.69,36.08-13.31c1.07-0.42,1.95-2.84,1.93-4.32c-0.12-8.32-0.74-16.64-0.81-24.97
		c-0.12-15.83,0.06-31.66,0.05-47.49c0-6.33-1.59-12.17-5.51-17.3c-8.1-10.61-19.54-12.51-31.09-9.52
		c-21.09,5.46-42.08,11.62-62.57,18.99c-18.62,6.69-29.25,27.38-28.6,44.65c0.87,23.12,0.48,46.33-0.48,69.46
		c-0.45,10.76,1.81,19.88,9,27.54c11.73,12.5,23.43,25.09,35.86,36.88c12.68,12.03,26.16,23.21,39.41,34.63
		c3.97,3.42,5.55,7.31,5.5,12.64c-0.21,24.49-0.11,48.99,0.04,73.48c0.06,11.15-2.02,14.88-12.72,18.58
		c-9.43,3.26-19.09,5.92-28.71,8.6c-6.52,1.81-10.65-1.27-10.13-8.14c1.98-25.96-0.63-52.11,3.43-79.25
		C392.55,674.57,377.39,679.61,360.92,685.07z M1207,398.61c-0.05,0-0.11,0-0.16,0c0-27.16,0-54.31,0-81.47
		c0-8.83,0.42-17.68-0.04-26.48c-1.06-20.37-16.15-32.65-36.21-29.55c-6.56,1.02-13.06,2.64-19.48,4.37
		c-28.05,7.56-45.71,32.57-45.57,60.12c0.29,57.96-0.68,115.93-1.1,173.9c-0.07,9.66-0.42,19.35,0.16,28.98
		c1.37,22.8,19.01,35.8,41.22,30.25c9.34-2.33,18.58-5.4,27.5-9.02c21.83-8.87,33.8-27.62,33.72-51.14
		C1206.91,465.24,1207,431.93,1207,398.61z M509.92,445.23c-0.23-0.44-0.12,0.15,0.22,0.36c8.34,5.24,10.21,13.11,10.15,22.4
		c-0.43,57.98-0.55,115.96-0.89,173.94c-0.11,18.16-1.2,36.33-0.76,54.47c0.53,21.65,15.96,34.64,37.28,31.42
		c9.61-1.45,19.28-4.21,28.22-8.04c24-10.28,38.45-30.47,37.68-57.27c-1.51-52.45-1.25-104.95-1.67-157.43
		c-0.19-24.32-0.21-48.65-0.4-72.97c-0.05-6,0.63-11.59,5.19-16.12c1.09-1.08,1.46-2.87,2.54-5.1c-16.86,5-32.56,9.66-48.19,14.3
		c8.11,8.66,8.17,8.66,8.43,21.81c0.14,7.16,0.04,14.33,0.03,21.49c-0.07,66.65-0.18,133.29-0.15,199.94
		c0,4.53-1.14,8.33-4.63,11.04c-4.05,3.15-8.14,6.49-12.72,8.67c-9.86,4.69-17.45-0.91-16.62-11.77c0.29-3.82,0.78-7.64,0.77-11.45
		c-0.16-70.48-0.35-140.96-0.63-211.43c-0.03-7.56-0.72-15.13,6.01-20.67c0.24-0.2,0.08-0.89,0.09-1.04
		C543.18,436.27,526.51,440.76,509.92,445.23z M677.65,692.63c-0.65-8.6-1.61-15.94-1.67-23.28c-0.21-25.83-0.04-51.65-0.22-77.48
		c-0.02-3.34,1.35-4.7,4.11-5.86c9.98-4.21,20.29-7.84,29.72-13.06c18.79-10.43,31.25-26.91,32.29-48.18
		c1.69-34.58,0.8-69.3,0.52-103.95c-0.13-15.94-10.76-27.68-26.51-29.38c-6.96-0.75-14.37-0.21-21.22,1.34
		c-18.02,4.1-35.83,9.11-53.74,13.68c-2.75,0.7-5.61,0.98-9.91,1.7c10.25,6.93,10.26,16.11,10.18,25.72
		c-0.49,55.99-0.78,111.98-0.99,167.97c-0.1,25.83,0.16,51.66,0.19,77.49c0.01,8.07-0.37,16.09-6.68,22.33
		c-0.41,0.4-0.21,1.42-0.38,2.78C648.88,700.29,663.9,696.29,677.65,692.63z M657.4,823.62c-2.83-4.79-4.77-8.67-7.27-12.15
		c-2.61-3.64-5.96-6.75-8.64-10.35c-4.84-6.54-10.25-10.06-18.16-4.82c-0.94,0.62-2.17,0.85-3.3,1.11c-3.69,0.85-4.7,3.04-4.9,6.84
		c-1.04,19.78-2.42,39.55-3.8,59.31c-0.43,6.2-1.19,12.37-1.84,18.89c6.76-1.22,12.83-2.08,18.72-3.58c1.34-0.34,2.8-2.83,3.02-4.49
		c1.52-11.38,2.79-22.8,4-34.22c0.28-2.67,0.04-5.39,0.04-8.08c0.42-0.17,0.83-0.34,1.25-0.5c3.55,4.54,7.31,8.94,10.6,13.66
		c8.23,11.79,9.79,11.82,18.14-0.52c4.48-6.63,8.77-13.37,13.34-19.93c2.28-3.27,5-6.24,8.25-10.25c-0.84,16.79-1.61,32.02-2.4,47.8
		c6.29-2.34,10.99-4.55,15.94-5.79c4.37-1.1,5.85-3.24,6.02-7.63c0.48-12.65,1.5-25.28,2.12-37.92c0.56-11.31,0.83-22.64,1.31-33.96
		c0.18-4.11-1.35-5.03-5.09-3.45c-3.68,1.55-7.42,3.29-11.3,3.92c-4.45,0.73-7.18,3.19-9.48,6.58c-7.21,10.6-14.4,21.23-21.57,31.85
		C660.85,818.22,659.39,820.55,657.4,823.62z M1189.17,716.81c-5.01-6.55-9.41-12.36-13.88-18.12c-2.31-2.97-2.06-5.16,1.22-7.41
		c6.5-4.46,10.91-10.67,13.67-18.03c4.46-11.93,0.83-22.6-9.39-28.61c-7.79-4.58-15.81-4.54-24.11-2.04
		c-12.91,3.88-25.85,7.68-38.68,11.8c-1.32,0.42-2.85,2.75-2.9,4.24c-0.75,24.13-1.26,48.27-1.87,72.41
		c-0.17,6.71-0.91,9.24,8.03,6.28c14.66-4.85,12.74-1.82,13.51-17.3c0.31-6.18,0.32-11.95,8.34-13.03c1.22-0.17,2.4-1.15,3.46-1.94
		c2.44-1.84,4.1-1.15,5.76,1.19c3.18,4.48,6.5,8.86,9.87,13.2c4.76,6.13,4.74,5.96,11.93,2.88
		C1178.82,720.31,1183.69,718.79,1189.17,716.81z M840.69,780.76c-0.04-26.72-17.04-40.64-38.85-36.33
		c-23.23,4.59-38.86,18.77-48.7,39.66c-5.06,10.74-5.11,21.93-0.05,32.86c4.34,9.4,16.56,17.7,25.28,16.68
		c15.49-1.81,29.87-6.63,41.57-17.53C831.57,805.26,840.6,793.04,840.69,780.76z M1074.68,708.81c2.27-21.23-24.6-35.44-40.48-31.97
		c-21.69,4.75-47.29,24.3-50.84,52.81c-2.57,20.71,17.79,44.91,40.2,36.37c4.35-1.66,8.97-2.71,13.17-4.67
		C1059.13,750.88,1072.43,733.77,1074.68,708.81z M897.69,802.07c6.29-2.26,11.01-4.39,15.96-5.61c5-1.24,6.4-3.87,6.5-8.86
		c0.35-17.31,1.15-34.62,2.06-51.91c0.09-1.64,1.84-4.02,3.37-4.61c5.73-2.18,11.72-3.69,17.56-5.61c1.47-0.48,3.78-1.34,3.95-2.33
		c1.08-6.07,1.65-12.22,2.45-18.84c-2.19,0.21-3.03,0.17-3.79,0.39c-19.71,5.55-39.45,11.02-59.11,16.73
		c-14.69,4.26-14.65,4.4-14.36,19.62c0,0.17,0.01,0.33,0,0.5c-0.31,3.96,1.74,4.64,4.97,3.5c4.08-1.44,8.11-3.06,12.22-4.41
		c3.5-1.15,7.1-2.03,11.36-3.22C899.75,759.41,898.74,780.25,897.69,802.07z M1331.61,715.42c5.36-2.17,9.42-3.98,13.6-5.46
		c9.71-3.43,19.5-6.63,29.22-10.04c5.33-1.87,8.73-5.07,9.73-11.27c1.81-11.31,4.56-22.47,6.83-33.72c0.33-1.64,0.21-3.38,0.34-5.73
		c-2.09,0.76-3.31,1.19-4.51,1.64c-12.75,4.78-25.39,9.89-38.31,14.16c-4.01,1.32-6.43,2.94-7.34,6.91
		c-2.15,9.39-4.36,18.76-6.46,28.16C1333.64,704.84,1332.77,709.64,1331.61,715.42z M1490.7,620.17
		c-14.34,3.58-28.02,6.9-41.62,10.52c-1.38,0.37-2.93,2.32-3.33,3.82c-3.51,13.02-6.82,26.09-10.04,39.18
		c-0.43,1.75-0.06,3.71-0.06,6.14c15.58-4.44,30.29-8.56,44.93-12.92c1.15-0.34,2.28-2.31,2.56-3.69
		c1.19-5.87,2.02-11.81,3.04-17.71C1487.62,637.22,1489.13,628.94,1490.7,620.17z M1553.38,555.76c-0.95,0.16-1.79,0.16-2.52,0.45
		c-13.15,5.13-26.35,10.11-39.35,15.61c-2.36,1-4.72,3.83-5.55,6.32c-3.21,9.61-5.83,19.41-8.59,29.16
		c-0.84,2.96-1.43,5.98-2.24,9.42c1.81,0,2.97,0.22,4.02-0.03c10.99-2.63,22.07-4.94,32.86-8.23c3.58-1.09,8.13-4.17,9.21-7.36
		c4.87-14.42,8.66-29.21,12.81-43.87C1554.1,556.98,1553.79,556.64,1553.38,555.76z M1395.88,646.04c0.94,0.21,1.31,0.42,1.57,0.33
		c14.32-4.76,28.62-9.58,42.96-14.28c3.34-1.09,5.35-2.94,5.97-6.52c1.9-10.97,3.95-21.92,5.93-32.88c0.39-2.16,0.7-4.33,1.03-6.41
		c-14.86,5.41-29.23,10.5-43.44,16c-1.94,0.75-3.88,3.29-4.47,5.38c-2.94,10.38-5.43,20.89-8.05,31.36
		C1396.8,641.35,1396.38,643.71,1395.88,646.04z M1353.78,617.22c3.87-1.17,6.35-1.82,8.76-2.67c12.22-4.33,24.35-8.89,36.66-12.95
		c3.65-1.2,5.48-3.09,6.46-6.64c2.04-7.37,4.47-14.62,6.56-21.97c1.25-4.38,2.15-8.85,3.24-13.4c-1.31-0.24-1.85-0.52-2.24-0.38
		c-14.8,5.46-29.62,10.86-44.31,16.6c-1.82,0.71-3.44,3.12-4.2,5.1c-2.6,6.83-4.91,13.78-7.05,20.76
		C1356.23,606.33,1355.28,611.14,1353.78,617.22z M1513.41,530.65c-1.98-0.23-2.49-0.43-2.93-0.31
		c-13.04,3.36-26.12,6.61-39.06,10.31c-1.71,0.49-3.38,3.07-4.03,5.02c-2.71,8.2-5.04,16.53-7.48,24.82
		c-1.13,3.85-2.17,7.72-3.43,12.22c2.08-0.36,3.06-0.43,3.97-0.71c11.58-3.62,23.01-7.8,34.77-10.68
		c6.19-1.52,9.22-4.19,10.52-10.35C1507.85,550.95,1510.73,541.09,1513.41,530.65z M922.18,659.29c-0.07-0.55-0.15-1.1-0.22-1.66
		c-3.78,0.52-7.67,0.64-11.32,1.64c-29.39,7.99-58.7,16.28-88.12,24.2c-23.79,6.4-47.68,12.42-71.53,18.59
		c-6.61,1.71-13.3,3.13-19.8,5.18c-2.42,0.76-4.39,2.94-7.51,5.15C740.27,716.56,912.87,665.4,922.18,659.29z M1490.94,665.54
		c1.36,0.43,2.4,1.07,3.42,1.04c8.46-0.23,16.92-0.49,25.37-1c1.22-0.07,3.07-1.26,3.41-2.31c2.12-6.69,3.9-13.48,5.8-20.24
		c-0.47-0.27-0.94-0.54-1.41-0.82C1514.43,648.22,1502.07,655.39,1490.94,665.54z"/>
	<path d="M1320.46,779.49c-0.06-8.12,4.67-13.48,12.56-14.31c0.95-0.1,1.85-0.7,2.8-0.75c1.96-0.1,4.33-0.68,5.84,0.16
		c5.88,3.3,4.61,9.27,4.79,14.65c0.14,4.26-1.31,7.41-5.66,8.79c-2.05,0.65-4.02,1.55-6.08,2.18
		C1323.22,793.73,1320.55,791.71,1320.46,779.49z"/>
	<path d="M991.01,876.54c0-8.12,4.59-13.2,12.78-14.22c0.79-0.1,1.63-0.26,2.33-0.63c4.43-2.33,8.98-0.51,10.56,4.27
		c4.07,12.3-6.02,23.88-18.82,21.6C993.51,886.79,991.01,882.77,991.01,876.54z"/>
	<path d="M1049.06,857.94c-0.01-11.88,10.81-19.13,21.58-14.43c0.56,0.24,1.22,0.75,1.41,1.29c2.07,5.78,3.24,11.75-0.13,17.32
		c-3.43,5.66-9.21,8.79-15.49,8.29c-2.64-0.21-5.17-4.67-7.24-7.57C1048.4,861.74,1049.06,859.61,1049.06,857.94z"/>
	<path d="M1128.04,838.43c0.05,9.94-5.6,16.26-15.86,16.03c-2.73-0.06-6.9-3.96-7.76-6.88c-2.68-9.07-0.08-14.4,8.13-18.82
		c2.98-1.6,6.57-2.97,9.82-2.84c1.95,0.08,4.48,2.94,5.46,5.13C1128.77,833.11,1128.04,835.94,1128.04,838.43z"/>
	<path d="M1172.97,811.41c6.78,0.85,8.4,2.23,9.5,8.7c1.98,11.6-6.47,20.38-18.22,18.65c-1.7-0.25-3.84-1.71-4.64-3.21
		c-4.61-8.64-3.29-14.79,4.57-20.46C1166.68,813.27,1170.01,812.6,1172.97,811.41z"/>
	<path d="M1268.29,794.82c-1.34-9.86,9.58-17.47,18.26-14.38c2.44,0.87,4.95,3.56,5.97,6.03c2.81,6.77-0.58,14.33-7.19,17.63
		c-0.59,0.3-1.22,0.53-1.83,0.8C1272.72,809.56,1268.3,806.64,1268.29,794.82z"/>
	<path d="M1230.84,795.9c6.59,0.05,8.72,2.3,8.6,9.1c-0.17,9.5-5.24,15.79-14.45,17.6c-3.66,0.72-6.8-0.44-7.65-4.38
		c-0.8-3.71-1.92-7.79-1.14-11.32C1217.85,799.33,1223.19,795.84,1230.84,795.9z"/>
	<path class="st0" d="M1211.52,249.35c4.98-1.04,9.36-1.71,13.59-2.89c15.57-4.34,31.08-8.87,46.63-13.28
		c4.65-1.32,9.3-2.64,14.02-3.66c18.87-4.06,33.87,5.73,36.96,24.76c1.22,7.49,0.95,15.27,0.93,22.91
		c-0.05,21.16-1.21,42.36-0.28,63.48c1.02,23.34-7.23,41.6-25.61,55.47c-3.73,2.82-3.85,4.83-2.26,9.31
		c5,14.11,8.9,28.6,13.25,42.94c4.98,16.42,9.84,32.88,15.11,49.2c0.79,2.43,4.47,6.29,5.27,5.94c3.1-1.35,6.38-3.66,8.04-6.52
		c1.53-2.65,1.4-6.44,1.44-9.74c0.35-27.33,0.66-54.65,0.8-81.98c0.28-56.16,0.37-112.32,0.75-168.47
		c0.06-8.56-0.62-16.36-8.68-21.45c-0.34-0.21-0.4-0.86-0.73-1.64c0.81-0.48,1.55-1.17,2.4-1.38c22.58-5.74,45.19-11.37,67.76-17.17
		c9.21-2.37,18.07-2.52,26.65,2.27c7.84,4.38,11.74,11.24,12.44,19.88c0.71,8.79,1.2,17.63,1.26,26.45
		c0.15,21.83-0.11,43.66,0.01,65.49c0.12,21.14-7.08,38.71-24.16,51.81c-1.02,0.78-2.04,3.09-1.61,4.01
		c9.29,19.72,11.21,41.43,16.85,62.12c2.54,9.32,5.04,18.65,7.61,27.97c0.24,0.86,0.88,1.6,2.19,3.88
		c1.48-7.22,3.05-12.96,3.79-18.8c6.37-50.58,12.32-101.22,18.96-151.76c4.53-34.52,9.88-68.93,15.03-103.37
		c0.88-5.88-1.34-9.94-5.37-12.65c19.57-5.02,39.37-10.09,59.36-15.22c-0.15-0.38,0.31,0.21,0.16,0.49
		c-3.95,7.56-2.67,15.65-2.11,23.53c3.83,53.52,7.78,107.02,11.8,160.53c1.73,23.09,3.51,46.18,5.69,69.23
		c0.69,7.24,2.43,14.43,4.33,21.48c0.91,3.37,3.31,6.33,5,9.41c-15.4,4.63-30.67,9.22-47.4,14.24c1.35-2.42,2.14-3.65,2.76-4.97
		c1.2-2.53,3.4-5.17,3.27-7.66c-0.83-15.3-2.2-30.58-3.41-45.86c-0.06-0.79-0.39-1.56-0.71-2.81c-9.9,3.92-19.62,7.63-29.17,11.7
		c-1.29,0.55-2.39,2.87-2.58,4.48c-1.63,14.06-3.05,28.15-4.47,42.24c-0.17,1.64-0.03,3.34,0.14,4.99c0.81,7.76,0.81,7.68-6.87,9.92
		c-16.94,4.94-33.86,9.99-50.8,14.93c-3.11,0.91-6.3,1.54-8.78,2.14c-1.02-5.58-1.54-10.51-2.85-15.21
		c-8.19-29.35-16.56-58.65-24.87-87.97c-0.64-2.24-1.05-4.58-1.97-6.7c-0.56-1.29-2.22-3.34-2.77-3.16
		c-1.55,0.5-3.22,1.74-4.01,3.15c-0.74,1.32-0.55,3.24-0.54,4.9c0.13,32.5,0.3,64.99,0.46,97.49c0.02,4.58,0.51,8.94,4.13,12.41
		c2.33,2.24,1.89,3.94-1.47,4.86c-15.58,4.26-31.07,8.87-46.72,12.86c-13.16,3.36-26.5,6.03-39.51,8.95
		c-2.19-9.25-4.22-19.11-6.88-28.81c-6.6-24.09-13.44-48.12-20.36-72.12c-0.43-1.5-2.31-2.58-3.52-3.86
		c-1.31,1.49-3.59,2.89-3.75,4.5c-0.74,7.28-1.15,14.63-1.18,21.95c-0.11,22-0.13,43.99,0.12,65.99c0.08,7.26-1.73,15.17,5.3,20.72
		c-15.85,4.61-31.13,9.06-46.82,13.62c2.2-4.5,4.85-8.29,5.87-12.47c1.2-4.94,1.31-10.23,1.33-15.37
		c0.38-74.99,0.68-149.97,0.95-224.96c0.02-6.33-0.37-12.65-0.42-18.98c-0.06-6.06-2.1-11.03-7.2-14.6
		C1213.23,251.85,1212.69,250.79,1211.52,249.35z M1255.14,386.46c2.17-0.91,3.51-1.41,4.8-2.02c10.29-4.82,19.03-11.68,26-20.61
		c1.78-2.28,3.25-5.53,3.27-8.35c0.16-26.32-0.04-52.64-0.09-78.97c-0.02-8.67-4.07-12.06-12.32-9.91
		c-6.28,1.63-12.48,3.62-18.76,5.24c-2.66,0.69-3.13,2.09-3.11,4.68c0.16,32.32,0.17,64.64,0.21,96.95
		C1255.14,377.45,1255.14,381.42,1255.14,386.46z M1374.53,346.77c11.51-4.44,20.93-9.88,28.63-18.49c3.22-3.6,4.52-6.86,4.5-11.42
		c-0.05-11.49,0.35-22.99,0.33-34.48c-0.02-13.99-0.11-27.99-0.48-41.98c-0.23-8.57-4.78-11.6-12.98-9.13
		c-3.03,0.91-6.01,2-8.99,3.05c-3.59,1.26-8.53,1.57-10.35,4.11c-1.81,2.53-0.51,7.31-0.54,11.1c-0.22,29.32-0.45,58.64-0.62,87.96
		C1374,340.4,1374.33,343.32,1374.53,346.77z M1484.35,372.24c7.92-2.21,14.05-4.51,20.38-5.5c5.01-0.78,5.8-2.94,5.36-7.34
		c-0.88-8.78-1.43-17.59-1.88-26.4c-1.53-29.45-2.94-58.9-4.45-88.34c-0.13-2.48-0.67-4.93-1.02-7.39c-0.43,0.03-0.86,0.07-1.29,0.1
		C1495.79,282,1490.13,326.64,1484.35,372.24z"/>
	<path class="st0" d="M976.57,293.91c25.17-7.4,50.95-14.74,76.58-22.57c21.3-6.5,34.51,7.23,34.94,25.02
		c0.5,20.65,0.23,41.32,0.29,61.99c0.05,18.83,0.17,37.67,0.13,56.5c-0.06,29.55-13.68,50.5-40.54,62.61
		c-10.01,4.51-20.34,8.36-30.64,12.18c-2.76,1.02-3.42,2.3-3.4,5.04c0.22,27.67,0.3,55.33,0.42,83c0.04,9.29-1.16,18.84,6.54,26.95
		c-9.89,2.56-18.82,4.8-27.71,7.21c-5.29,1.44-10.54,3.06-15.75,4.75c-4.61,1.49-9.06,3.35-14.03,1.05
		c-1.15-0.53-2.92,0.01-4.33,0.35c-8.42,2.05-16.81,4.2-25.22,6.26c-1.57,0.38-3.19,0.53-3.75,0.61
		c-10.13-37.76-20.12-74.97-30.12-112.23c-4.95,0.85-6.76,3.6-6.8,8.07c-0.23,32.16-0.58,64.33-0.78,96.49
		c-0.04,5.76-0.18,11.72,6.29,15.6c-51.57,13.41-101.85,26.48-152.19,39.56c0.1-0.31,0.12-1.14,0.52-1.43
		c6.02-4.32,6-10.71,5.99-17.11c-0.03-32.66-0.25-65.33-0.05-97.99c0.3-49.66,0.88-99.31,1.34-148.97
		c0.09-9.71,1.12-19.75-9.94-25.24c32.87-9.04,64.79-17.82,97.53-26.83c0,13.4,0,26.11,0,37.75c-9.6,2.44-19.01,4.86-28.43,7.22
		c-7.43,1.87-14.91,3.53-22.27,5.64c-1.38,0.4-3.24,2.44-3.26,3.76c-0.59,28.32-0.96,56.65-1.34,84.98
		c-0.01,0.47,0.25,0.93,0.79,2.82c14.28-4.82,28.43-9.59,43.65-14.72c0,3.83,0.02,7.74,0,11.65c-0.06,8-0.23,16-0.17,23.99
		c0.03,3.54-1.34,5.4-4.85,6.36c-11.88,3.28-23.66,6.89-35.52,10.22c-2.44,0.68-3.55,1.57-3.53,4.38
		c0.27,28.49,0.39,56.99,0.56,85.48c0,0.48,0.17,0.95,0.43,2.31c3.53-0.92,7-1.7,10.39-2.72c10.21-3.07,20.48-5.96,30.55-9.45
		c5.35-1.85,10.33-4.79,15.92-7.45c0,11.59,0,23.68,0,35.93c7.37-1.45,12.66-7.15,13.21-14.01c0.42-5.14,0.27-10.32,0.31-15.49
		c0.49-75.32,0.96-150.65,1.43-225.97c0.02-3.33,0.06-6.67,0-10c-0.18-9.8-0.22-19.68-10.85-25.05c0.74-0.86,0.98-1.43,1.35-1.53
		c21.82-5.99,43.59-12.2,65.53-17.74c7.31-1.84,15.14-3.17,22.57-2.59c12.49,0.97,19.78,8.91,21.36,21.42
		c0.79,6.26,1.04,12.63,1.04,18.95c-0.02,27.83-0.25,55.66-0.34,83.5c-0.06,18.95-7.5,33.81-23.7,44.11
		c-1.15,0.73-2.14,3.19-1.83,4.52c1.49,6.3,3.58,12.46,5.22,18.72c7.31,27.87,14.5,55.77,21.87,83.63c0.95,3.61,2.71,7,4.14,10.61
		c8.08-3.03,11.06-8.48,11.09-16.09c0.09-24.83,0.27-49.66,0.44-74.49c0.48-72.99,1.01-145.99,1.34-218.98
		C978.99,302.39,977.44,298.28,976.57,293.91z M1014.37,451.54c9.7-0.92,28.6-9.99,35.56-20.51c1.89-2.86,3.42-6.61,3.45-9.97
		c0.19-29.15,0.02-58.3-0.08-87.46c-0.02-6.16,0.03-12.34-0.36-18.48c-0.5-7.79-4.7-10.57-12.1-8.34
		c-8.28,2.49-16.56,4.98-24.75,7.75c-1.03,0.35-2.12,2.39-2.11,3.64c0.04,28.65,0.27,57.3,0.39,85.95
		C1014.43,419.92,1014.37,435.72,1014.37,451.54z M892.82,488.64c12.78-4.28,22.59-11.43,30.37-21.24c1.89-2.39,3.19-5.86,3.33-8.9
		c0.44-9.47,0.2-18.97,0.22-28.46c0.03-16.98,0.14-33.97,0.07-50.95c-0.04-9.95-4.77-13.25-14.26-10.22
		c-3.01,0.96-5.97,2.08-8.96,3.11c-3.59,1.24-8.58,1.46-10.39,3.97c-1.78,2.47-0.3,7.27-0.31,11.04
		c-0.02,31.97-0.04,63.94-0.07,95.91C892.82,484.65,892.82,486.41,892.82,488.64z"/>
	<path class="st0" d="M356.56,686.49c16.47-5.47,31.63-10.5,47.1-15.64c-4.06,27.13-1.45,53.29-3.43,79.25
		c-0.52,6.87,3.61,9.96,10.13,8.14c9.63-2.68,19.28-5.33,28.71-8.6c10.71-3.7,12.79-7.44,12.72-18.58
		c-0.14-24.49-0.25-48.99-0.04-73.48c0.05-5.33-1.53-9.22-5.5-12.64c-13.24-11.42-26.73-22.6-39.41-34.63
		c-12.43-11.79-24.12-24.38-35.86-36.88c-7.19-7.66-9.45-16.78-9-27.54c0.96-23.13,1.35-46.34,0.48-69.46
		c-0.65-17.27,9.98-37.96,28.6-44.65c20.5-7.36,41.48-13.52,62.57-18.99c11.55-2.99,22.99-1.09,31.09,9.52
		c3.92,5.13,5.5,10.97,5.51,17.3c0,15.83-0.17,31.66-0.05,47.49c0.06,8.32,0.69,16.64,0.81,24.97c0.02,1.48-0.86,3.91-1.93,4.32
		c-11.96,4.62-24.03,8.95-36.08,13.31c-0.56,0.2-1.26,0.03-2.64,0.03c0-1.79-0.01-3.38,0-4.96c0.2-20.5,0.42-40.99,0.61-61.49
		c0.08-9.01-3.1-11.59-11.77-9.04c-8.3,2.44-16.57,5.06-24.65,8.12c-11.69,4.42-14.25,8.68-14.33,21
		c-0.14,19.66-0.3,39.32-0.8,58.97c-0.12,4.9,1.9,8.39,5.08,11.41c7.24,6.89,14.5,13.76,22.05,20.31
		c17.12,14.84,34.43,29.46,51.63,44.2c2.15,1.84,4.06,3.95,6.14,5.87c5.21,4.82,7.23,10.62,7.22,17.83
		c-0.04,33.32,0.63,66.65,0.44,99.97c-0.1,18.27-10.66,30.99-26.18,38.33c-22.2,10.5-46.14,16.39-70.16,21.23
		c-15.96,3.22-30.64-7.9-31.58-24.12c-1.12-19.44-0.88-38.96-1.21-58.45c-0.05-3,0.15-6.01,0.01-9
		C362.47,701.84,365.16,693.04,356.56,686.49z"/>
	<path class="st0" d="M1202.64,400.03c0,33.32-0.08,66.64,0.03,99.96c0.08,23.52-11.89,42.27-33.72,51.14
		c-8.92,3.63-18.16,6.69-27.5,9.02c-22.22,5.55-39.86-7.44-41.22-30.25c-0.58-9.63-0.22-19.32-0.16-28.97
		c0.42-57.97,1.39-115.94,1.1-173.9c-0.14-27.55,17.52-52.56,45.57-60.12c6.42-1.73,12.92-3.36,19.48-4.37
		c20.06-3.1,35.16,9.17,36.21,29.55c0.46,8.8,0.04,17.65,0.04,26.48c0,27.16,0,54.31,0,81.47
		C1202.53,400.03,1202.58,400.03,1202.64,400.03z M1134.44,415.83c-0.04,0-0.09,0-0.13,0c0,33.47-0.02,66.94,0.01,100.42
		c0.01,6.31,4.86,9.71,11.34,8.08c15.24-3.83,20.93-11.04,21.01-26.59c0-0.67,0-1.33,0.01-2c0.39-49.8,0.81-99.59,1.16-149.39
		c0.09-13.16,0.13-26.32-0.12-39.47c-0.15-8.25-5.05-11.7-12.65-8.69c-5.36,2.12-10.46,5.06-15.39,8.1
		c-3.54,2.18-5.31,5.61-5.29,10.11C1134.49,349.55,1134.44,382.69,1134.44,415.83z"/>
	<path class="st0" d="M505.56,446.65c16.59-4.47,33.26-8.96,49.94-13.45c-0.01,0.15,0.15,0.84-0.09,1.04
		c-6.73,5.54-6.04,13.11-6.01,20.67c0.28,70.48,0.47,140.96,0.63,211.43c0.01,3.82-0.48,7.64-0.77,11.45
		c-0.83,10.85,6.76,16.46,16.62,11.77c4.58-2.18,8.67-5.52,12.72-8.67c3.49-2.71,4.63-6.51,4.63-11.04
		c-0.03-66.65,0.08-133.29,0.15-199.94c0.01-7.16,0.11-14.33-0.03-21.49c-0.26-13.16-0.32-13.16-8.43-21.81
		c15.63-4.64,31.33-9.3,48.19-14.3c-1.07,2.23-1.45,4.02-2.54,5.1c-4.56,4.53-5.24,10.12-5.19,16.12
		c0.19,24.32,0.21,48.65,0.4,72.97c0.42,52.48,0.16,104.98,1.67,157.43c0.77,26.8-13.68,46.99-37.68,57.27
		c-8.93,3.83-18.61,6.59-28.22,8.04c-21.31,3.22-36.75-9.77-37.28-31.42c-0.45-18.14,0.65-36.31,0.76-54.47
		c0.34-57.98,0.46-115.96,0.89-173.94c0.07-9.29-1.81-17.16-10.15-22.4C505.44,446.8,505.33,446.22,505.56,446.65z"/>
	<path class="st0" d="M673.29,694.05c-13.75,3.66-28.77,7.66-44.34,11.8c0.16-1.36-0.03-2.38,0.38-2.78
		c6.32-6.24,6.69-14.26,6.68-22.33c-0.03-25.83-0.29-51.66-0.19-77.49c0.21-55.99,0.5-111.98,0.99-167.97
		c0.08-9.6,0.08-18.79-10.18-25.72c4.3-0.72,7.16-1,9.91-1.7c17.91-4.57,35.73-9.58,53.74-13.68c6.84-1.56,14.25-2.09,21.22-1.34
		c15.75,1.7,26.38,13.43,26.51,29.38c0.29,34.66,1.17,69.37-0.52,103.95c-1.04,21.27-13.5,37.76-32.29,48.18
		c-9.42,5.23-19.74,8.86-29.72,13.06c-2.76,1.16-4.13,2.52-4.11,5.86c0.18,25.83,0.01,51.65,0.22,77.48
		C671.68,678.12,672.65,685.46,673.29,694.05z M671.12,552.72c12.38-3.8,22.14-9.53,29.53-18.74c1.65-2.06,3.03-5.05,3.05-7.62
		c0.22-29.62,0.23-59.25,0.11-88.88c-0.03-6.38-5.48-10.36-11.57-8.68c-6.41,1.76-12.77,3.76-19.02,6.01
		c-1.19,0.43-2.54,2.52-2.54,3.84c0.03,20.97,0.32,41.93,0.43,62.89C671.19,518.33,671.12,535.11,671.12,552.72z"/>
	<path class="st0" d="M653.04,825.04c1.99-3.07,3.46-5.4,5-7.68c7.18-10.63,14.36-21.25,21.57-31.85c2.3-3.38,5.03-5.85,9.48-6.58
		c3.88-0.63,7.62-2.37,11.3-3.92c3.74-1.58,5.27-0.66,5.09,3.45c-0.49,11.32-0.76,22.65-1.31,33.96
		c-0.62,12.65-1.64,25.27-2.12,37.92c-0.17,4.39-1.65,6.53-6.02,7.63c-4.95,1.24-9.65,3.45-15.94,5.79
		c0.79-15.78,1.56-31.01,2.4-47.8c-3.25,4.01-5.97,6.98-8.25,10.25c-4.57,6.56-8.87,13.31-13.34,19.93
		c-8.34,12.35-9.91,12.32-18.14,0.52c-3.29-4.72-7.05-9.11-10.6-13.66c-0.42,0.17-0.83,0.34-1.25,0.5c0,2.7,0.24,5.42-0.04,8.08
		c-1.21,11.42-2.47,22.84-4,34.22c-0.22,1.66-1.68,4.15-3.02,4.49c-5.9,1.5-11.96,2.35-18.72,3.58c0.64-6.52,1.41-12.69,1.84-18.89
		c1.37-19.76,2.75-39.53,3.8-59.31c0.2-3.79,1.22-5.99,4.9-6.84c1.13-0.26,2.37-0.49,3.3-1.11c7.91-5.24,13.32-1.72,18.16,4.82
		c2.67,3.61,6.02,6.71,8.64,10.35C648.27,816.37,650.21,820.25,653.04,825.04z"/>
	<path class="st0" d="M1184.81,718.23c-5.48,1.99-10.35,3.51-15.03,5.51c-7.2,3.08-7.18,3.25-11.93-2.88
		c-3.37-4.34-6.68-8.72-9.87-13.2c-1.66-2.33-3.33-3.03-5.76-1.19c-1.06,0.8-2.24,1.78-3.46,1.94c-8.02,1.09-8.04,6.85-8.34,13.03
		c-0.77,15.48,1.15,12.45-13.51,17.3c-8.95,2.96-8.21,0.43-8.03-6.28c0.62-24.14,1.12-48.28,1.87-72.41
		c0.05-1.49,1.57-3.82,2.9-4.24c12.83-4.12,25.77-7.91,38.68-11.8c8.3-2.5,16.32-2.54,24.11,2.04c10.22,6.01,13.86,16.68,9.39,28.61
		c-2.76,7.37-7.16,13.58-13.67,18.03c-3.29,2.25-3.53,4.43-1.22,7.41C1175.4,705.87,1179.8,711.67,1184.81,718.23z M1130.5,692.07
		c9.99-3.38,18.86-5.99,27.4-9.41c4.93-1.97,6.54-6.79,6.65-11.94c0.12-5.89-2.09-8.37-7.81-7.23c-7.95,1.59-15.76,3.95-23.54,6.28
		c-1.15,0.35-2.52,2.29-2.58,3.55C1130.34,678.92,1130.5,684.55,1130.5,692.07z"/>
	<path class="st0" d="M836.33,782.18c-0.09,12.28-9.12,24.5-20.76,35.34c-11.71,10.9-26.08,15.72-41.57,17.53
		c-8.71,1.02-20.93-7.28-25.28-16.68c-5.05-10.93-5-22.12,0.05-32.86c9.84-20.89,25.46-35.06,48.7-39.66
		C819.29,741.54,836.29,755.46,836.33,782.18z M813.4,783.78c-0.02-11.37-4.75-17.31-12.72-17.52
		c-13.08-0.35-29.4,12.18-32.25,25.02c-1.41,6.35-0.26,12.33,4.56,17.09c4.71,4.65,10.53,4.48,15.82,1.91
		c6.05-2.94,11.94-6.5,17.18-10.69C811.27,795.36,813.59,789.17,813.4,783.78z"/>
	<path class="st0" d="M1070.32,710.23c-2.25,24.96-15.55,42.07-37.95,52.54c-4.2,1.96-8.81,3.01-13.17,4.67
		c-22.41,8.54-42.78-15.65-40.2-36.37c3.54-28.51,29.14-48.06,50.84-52.81C1045.72,674.79,1072.6,689,1070.32,710.23z
		 M1047.6,715.74c1.23-12-9.76-17.83-19.13-16.44c-13.27,1.96-21.11,10.16-25.63,21.79c-2.99,7.71-1,14.95,4.96,21.09
		c5.64,5.82,11.66,4.32,17.92,1.69c1.99-0.84,3.97-1.72,5.92-2.65C1042.3,736.08,1047.61,727.58,1047.6,715.74z"/>
	<path class="st0" d="M893.33,803.49c1.05-21.81,2.06-42.66,3.12-64.66c-4.26,1.2-7.85,2.07-11.36,3.22
		c-4.11,1.35-8.13,2.97-12.22,4.41c-3.23,1.13-5.28,0.46-4.97-3.5c0.01-0.17,0.01-0.33,0-0.5c-0.28-15.22-0.32-15.36,14.36-19.62
		c19.67-5.71,39.4-11.18,59.11-16.73c0.76-0.21,1.59-0.17,3.79-0.39c-0.8,6.61-1.37,12.77-2.45,18.84
		c-0.18,0.99-2.49,1.85-3.95,2.33c-5.84,1.91-11.82,3.43-17.56,5.61c-1.53,0.58-3.28,2.97-3.37,4.61
		c-0.91,17.29-1.71,34.6-2.06,51.91c-0.1,4.99-1.51,7.62-6.5,8.86C904.34,799.1,899.62,801.23,893.33,803.49z"/>
	<path class="st0" d="M1327.25,716.84c1.16-5.78,2.04-10.58,3.1-15.34c2.1-9.4,4.31-18.77,6.46-28.16c0.91-3.97,3.34-5.59,7.34-6.91
		c12.92-4.27,25.56-9.38,38.31-14.16c1.2-0.45,2.41-0.88,4.51-1.64c-0.12,2.35-0.01,4.08-0.34,5.73
		c-2.27,11.24-5.02,22.4-6.83,33.72c-0.99,6.2-4.4,9.4-9.73,11.27c-9.72,3.41-19.51,6.62-29.22,10.04
		C1336.67,712.85,1332.61,714.67,1327.25,716.84z"/>
	<path class="st0" d="M1486.34,621.59c-1.57,8.77-3.07,17.05-4.52,25.34c-1.03,5.9-1.86,11.84-3.04,17.71
		c-0.28,1.38-1.41,3.35-2.56,3.69c-14.64,4.37-29.35,8.49-44.93,12.92c0-2.43-0.37-4.39,0.06-6.14
		c3.22-13.09,6.54-26.16,10.04-39.18c0.4-1.5,1.95-3.45,3.33-3.82C1458.32,628.5,1472,625.17,1486.34,621.59z"/>
	<path class="st0" d="M1549.02,557.18c0.41,0.88,0.72,1.23,0.65,1.47c-4.15,14.66-7.94,29.45-12.81,43.87
		c-1.08,3.19-5.63,6.27-9.21,7.36c-10.79,3.29-21.88,5.6-32.86,8.23c-1.05,0.25-2.21,0.03-4.02,0.03c0.81-3.43,1.4-6.46,2.24-9.42
		c2.76-9.75,5.39-19.56,8.59-29.16c0.83-2.49,3.19-5.32,5.55-6.33c12.99-5.5,26.2-10.48,39.35-15.61
		C1547.23,557.34,1548.07,557.34,1549.02,557.18z"/>
	<path class="st0" d="M1391.53,647.46c0.49-2.33,0.92-4.69,1.49-7.01c2.61-10.47,5.11-20.98,8.05-31.36
		c0.59-2.09,2.54-4.64,4.47-5.38c14.21-5.49,28.58-10.58,43.44-16c-0.33,2.07-0.64,4.25-1.03,6.41
		c-1.98,10.96-4.04,21.91-5.93,32.88c-0.62,3.58-2.63,5.43-5.97,6.52c-14.34,4.69-28.64,9.52-42.96,14.28
		C1392.83,647.88,1392.47,647.67,1391.53,647.46z"/>
	<path class="st0" d="M1349.42,618.64c1.5-6.08,2.45-10.89,3.88-15.55c2.14-6.99,4.45-13.94,7.05-20.76c0.76-1.99,2.38-4.39,4.2-5.1
		c14.69-5.75,29.51-11.14,44.31-16.6c0.39-0.14,0.93,0.14,2.24,0.38c-1.09,4.55-1.99,9.02-3.24,13.4
		c-2.09,7.35-4.52,14.61-6.56,21.97c-0.98,3.55-2.81,5.44-6.46,6.64c-12.31,4.06-24.44,8.63-36.66,12.95
		C1355.78,616.82,1353.29,617.47,1349.42,618.64z"/>
	<path class="st0" d="M1509.05,532.07c-2.68,10.44-5.56,20.3-7.67,30.32c-1.3,6.16-4.33,8.83-10.52,10.35
		c-11.75,2.89-23.19,7.07-34.77,10.68c-0.91,0.28-1.89,0.35-3.97,0.71c1.26-4.5,2.3-8.38,3.43-12.22
		c2.43-8.29,4.77-16.62,7.48-24.82c0.65-1.96,2.31-4.53,4.03-5.02c12.95-3.7,26.02-6.95,39.06-10.31
		C1506.56,531.64,1507.08,531.84,1509.05,532.07z"/>
	<path class="st0" d="M917.83,660.71c-9.32,6.11-181.92,57.27-198.5,53.1c3.13-2.21,5.1-4.39,7.51-5.15
		c6.5-2.05,13.19-3.47,19.8-5.18c23.85-6.17,47.74-12.19,71.53-18.59c29.41-7.92,58.72-16.21,88.12-24.2
		c3.65-0.99,7.54-1.11,11.32-1.64C917.68,659.61,917.75,660.16,917.83,660.71z"/>
	<path class="st0" d="M1486.58,666.96c11.13-10.16,23.49-17.33,36.58-23.32c0.47,0.27,0.94,0.54,1.41,0.82
		c-1.89,6.76-3.67,13.55-5.8,20.24c-0.34,1.06-2.19,2.24-3.41,2.31c-8.45,0.5-16.91,0.77-25.37,1
		C1488.98,668.04,1487.94,667.4,1486.58,666.96z"/>
	<path d="M1255.14,386.46c0-5.03,0-9,0-12.97c-0.05-32.32-0.06-64.64-0.21-96.95c-0.01-2.58,0.45-3.99,3.11-4.68
		c6.29-1.63,12.48-3.61,18.76-5.24c8.25-2.14,12.3,1.24,12.32,9.91c0.06,26.32,0.26,52.64,0.09,78.97
		c-0.02,2.81-1.49,6.07-3.27,8.35c-6.97,8.92-15.71,15.79-26,20.61C1258.65,385.04,1257.31,385.55,1255.14,386.46z"/>
	<path d="M1374.53,346.77c-0.2-3.44-0.53-6.36-0.51-9.28c0.17-29.32,0.4-58.64,0.62-87.96c0.03-3.79-1.28-8.57,0.54-11.1
		c1.82-2.54,6.76-2.85,10.35-4.11c2.99-1.05,5.96-2.13,8.99-3.05c8.2-2.47,12.76,0.56,12.98,9.13c0.37,13.99,0.46,27.98,0.48,41.98
		c0.01,11.49-0.39,22.99-0.33,34.48c0.02,4.56-1.28,7.82-4.5,11.42C1395.46,336.89,1386.04,342.33,1374.53,346.77z"/>
	<path d="M1484.35,372.24c5.78-45.6,11.44-90.24,17.09-134.88c0.43-0.03,0.86-0.07,1.29-0.1c0.35,2.46,0.9,4.92,1.02,7.39
		c1.51,29.45,2.92,58.9,4.45,88.34c0.46,8.81,1.01,17.63,1.88,26.4c0.44,4.4-0.35,6.57-5.36,7.34
		C1498.4,367.73,1492.28,370.03,1484.35,372.24z"/>
	<path d="M1014.37,451.54c0-15.82,0.05-31.62-0.01-47.42c-0.12-28.65-0.34-57.3-0.39-85.95c0-1.25,1.09-3.3,2.11-3.64
		c8.19-2.77,16.47-5.26,24.75-7.75c7.4-2.23,11.59,0.55,12.1,8.34c0.4,6.14,0.34,12.32,0.36,18.48c0.1,29.15,0.27,58.31,0.08,87.46
		c-0.02,3.35-1.55,7.1-3.45,9.97C1042.97,441.55,1024.07,450.62,1014.37,451.54z"/>
	<path d="M892.82,488.64c0-2.24,0-3.99,0-5.74c0.02-31.97,0.05-63.94,0.07-95.91c0-3.78-1.47-8.57,0.31-11.04
		c1.81-2.51,6.8-2.73,10.39-3.97c2.99-1.03,5.95-2.15,8.96-3.11c9.5-3.03,14.22,0.27,14.26,10.22c0.07,16.98-0.03,33.97-0.07,50.95
		c-0.02,9.49,0.22,18.99-0.22,28.46c-0.14,3.04-1.44,6.51-3.33,8.9C915.41,477.21,905.59,484.36,892.82,488.64z"/>
	<path d="M1134.44,415.83c0-33.14,0.05-66.29-0.06-99.43c-0.01-4.5,1.76-7.93,5.29-10.11c4.93-3.04,10.03-5.98,15.39-8.1
		c7.6-3.01,12.5,0.44,12.65,8.69c0.24,13.15,0.21,26.31,0.12,39.47c-0.35,49.8-0.77,99.59-1.16,149.39c-0.01,0.67,0,1.33-0.01,2
		c-0.08,15.55-5.77,22.76-21.01,26.59c-6.48,1.63-11.33-1.77-11.34-8.08c-0.03-33.47-0.01-66.94-0.01-100.42
		C1134.36,415.83,1134.4,415.83,1134.44,415.83z"/>
	<path d="M671.12,552.72c0-17.62,0.07-34.4-0.02-51.17c-0.11-20.97-0.4-41.93-0.43-62.89c0-1.32,1.35-3.41,2.54-3.84
		c6.25-2.25,12.61-4.24,19.02-6.01c6.09-1.68,11.55,2.3,11.57,8.68c0.12,29.63,0.11,59.25-0.11,88.88
		c-0.02,2.57-1.39,5.55-3.05,7.62C693.25,543.2,683.5,548.93,671.12,552.72z"/>
	<path d="M1130.5,692.07c0-7.52-0.16-13.15,0.12-18.75c0.06-1.26,1.43-3.2,2.58-3.55c7.78-2.33,15.59-4.69,23.54-6.28
		c5.73-1.14,7.94,1.34,7.81,7.23c-0.11,5.15-1.72,9.97-6.65,11.94C1149.36,686.08,1140.49,688.69,1130.5,692.07z"/>
	<path d="M813.4,783.78c0.2,5.4-2.13,11.58-7.41,15.8c-5.24,4.19-11.14,7.75-17.18,10.69c-5.29,2.57-11.11,2.74-15.82-1.91
		c-4.81-4.75-5.97-10.73-4.56-17.09c2.85-12.84,19.18-25.37,32.25-25.02C808.65,766.47,813.37,772.41,813.4,783.78z"/>
	<path d="M1047.59,715.74c0.02,11.84-5.3,20.34-15.96,25.48c-1.95,0.94-3.93,1.82-5.92,2.65c-6.26,2.63-12.28,4.12-17.92-1.69
		c-5.96-6.15-7.95-13.39-4.96-21.09c4.52-11.63,12.36-19.83,25.63-21.79C1037.84,697.91,1048.83,703.74,1047.59,715.74z"/>
</g>
<path class="st0" d="M1244.25,747.46c1.16-5.78,2.04-10.58,3.1-15.34c2.1-9.4,4.31-18.77,6.46-28.16c0.91-3.97,3.34-5.59,7.34-6.91
	c12.92-4.27,25.56-9.38,38.31-14.16c1.2-0.45,2.41-0.88,4.51-1.64c-0.12,2.35-0.01,4.08-0.34,5.73c-2.27,11.24-5.02,22.4-6.83,33.72
	c-0.99,6.2-4.4,9.4-9.73,11.27c-9.72,3.41-19.51,6.62-29.22,10.04C1253.67,743.47,1249.61,745.29,1244.25,747.46z"/>
<path class="st0" d="M1255.14,655.09c1.5-6.08,2.45-10.89,3.88-15.55c2.14-6.99,4.45-13.94,7.05-20.76c0.76-1.99,2.38-4.39,4.2-5.1
	c14.69-5.75,29.51-11.14,44.31-16.6c0.39-0.14,0.93,0.14,2.24,0.38c-1.09,4.55-1.99,9.02-3.24,13.4
	c-2.09,7.35-4.52,14.61-6.56,21.97c-0.98,3.55-2.81,5.44-6.46,6.64c-12.31,4.06-24.44,8.63-36.66,12.95
	C1261.49,653.27,1259.01,653.92,1255.14,655.09z"/>
<path class="st0" d="M1299.53,674.14c0.49-2.33,0.27-3.27,0.85-5.59c2.61-10.47,2.84-18.13,5.78-28.52
	c0.59-2.09,7.25-5.03,9.19-5.78c14.21-5.49,18.98-7.47,33.84-12.88c-0.33,2.07-0.64,4.25-1.03,6.41
	c-1.98,10.96-4.04,21.91-5.93,32.88c-0.62,3.58-2.63,5.43-5.97,6.52c-14.34,4.69-17.23,5.72-31.55,10.48
	C1304.44,677.74,1298.29,677.65,1299.53,674.14z"/>
</svg>
