<?xml version="1.0" encoding="utf-8"?>
<!-- Generator: Adobe Illustrator 24.1.2, SVG Export Plug-In . SVG Version: 6.00 Build 0)  -->
<svg version="1.1" id="Capa_1" xmlns="http://www.w3.org/2000/svg" xmlns:xlink="http://www.w3.org/1999/xlink" x="0px" y="0px"
	 viewBox="0 0 425.2 425.2" style="enable-background:new 0 0 425.2 425.2;" xml:space="preserve">
<style type="text/css">
	.st0{fill:#FFFFFF;}
</style>
<path class="st0" d="M331.6,265.9c-0.1-0.6-0.5-2.6-2.2-4.5c-1.2-1.3-45.6-36.9-71.9-58c-2.4-2.5-8.1-4.2-11.1,0.5
	c-2.1,3-10.4,12.4-10.5,12.5c0,0-3.4,3.6-9,3.6c-0.6,0-1.2,0-1.7-0.1c-2.2-0.7-10.5-3.4-23.9-7.6c0,0-3.5-1.5-4.2-4.8
	c-1.1-5.1-4.3-25-5.5-32c-0.1-1.2-0.6-5.3-3.9-8.7l-12.7-9.2c-3.7-2.2-10.5-3.4-13.3,5.3l-3.7,15.7c0,0-0.1,1.3-2,3.9
	c-3.6,4.9-9.6,11.8-20.5,15.5c-0.4,0.2-1,0.5-1.7,0.5c-0.6-0.1-0.7-0.1-0.9-1.2c-0.5-2.6-4.7-28.9-6.3-38.8l-0.6-3.7
	c-0.2-1.2,0-2.7,0.1-2.9c0.8-0.7,3-1.5,4.7-1.8c2-0.5,5.9-2.8,6-7.5c0-0.5-0.2-3.4-3.3-6c-15.6-13.5-36.8-9.2-41.1,8.1
	c-0.8,4.4-0.3,10.5-0.3,10.6c3.8,19.7,1.1,36.2,26.6,64.9c1.5,2.9,5.9,4.6,9.3,2.5c1-0.5,16.1-8.2,15.5-7.9c1.5-1,5.3-1.6,7.4,0.3
	c4.7,3.5,15.2,11.7,20.7,15.9c0.2-0.2-3.7,8.9-3.7,9c-1.3,2-1.9,7.3,2.9,8.9c2.6,1,127.1,43.5,136.2,46.6c6.9,1.8,16,1.2,22.9-9.4
	c0.5-0.8,3-4.9,3-9C333.1,274.4,332.2,269,331.6,265.9z M178.1,234.3c1.9-4.4,0-7.5-1.6-8.4c-0.2-0.1-15.6-12.1-21.2-16.3
	c-4.5-3.8-11.9-2.8-15-0.7l-15.4,7.8c0,0-0.1,0-0.1,0l-0.6-0.8c-24.3-27.3-21.6-43.6-25.1-61.3c-0.1-1.7-0.3-5.9,0.2-8.5
	c3.4-12.7,19.9-13.7,30.6-3.2c-0.1,0.2-0.4,0.3-0.6,0.4c-0.8,0.2-5.2,1.2-7.8,3.5c-3.3,3.1-2.4,8.6-2.3,9.2l1.2,7.3
	c1.9,11.5,5.3,32.8,5.7,35.2c0.7,4,3,6.4,6.8,6.9l1,0.1c2.2,0,4.3-1,4.3-1c14.8-5,26.5-18.8,26.9-25.6l3.4-14.2
	c0.5-1.6,0.9-1.6,1.1-1.6c0.6,0,1.4,0.3,1.5,0.4l12.1,8.6c1.1,1.1,1.5,3.1,1.6,4.2c1.7,10.1,4.7,28.2,5.6,32.6
	c1.5,7.2,8.5,9.9,8.6,9.9c7.3,2.3,23.4,7.3,23.9,7.5l1,0.3c8.8,1.7,16.4-4.4,17.4-5.8c0.1-0.1,7.9-8.8,10.9-13
	c0.2,0.1,0.5,0.3,0.8,0.6c33.3,26.7,69.9,56,71.3,57.4c0.4,0.5,0.5,0.9,0.5,1c0.4,2.1,1.4,7.9,1.4,10.3c0,1.8-1.3,4.3-1.9,5.2l0,0
	c-4.4,6.9-10.1,7.6-14.8,6.5c-1-0.4-122.5-41.8-135.1-46L178.1,234.3z"/>
</svg>
