<?xml version="1.0" encoding="UTF-8"?>
<svg id="Capa_1" data-name="Capa 1" xmlns="http://www.w3.org/2000/svg" viewBox="0 0 425.2 425.2">
  <defs>
    <style>
      .cls-1 {
        fill: #fff;
      }
    </style>
  </defs>
  <path id="arg" class="cls-1" d="m348.98,157.33c-1.17-7.35-7.02-10.53-14.16-9.97-8.78,0-124.89-.45-129.69-.3-15.94.44-32.42.72-46.68,9.02,0,0-8.27,4.81-8.27,4.81-3.66,2.49-8.1,3.83-8.64,8.53-.58,6.31-.98,15.98-2.57,22.11-.74,3.74-5.37,7.25-9.37,5.26-1.92-.96-2.98-4.37-3.9-6.08-3.27-6.34-10.98-25.98-15.43-31.24,0,0-3.72-4.43-3.72-4.43-4.03-4.46-9.3-8.56-15.69-7.98-9.5.62-16.41,10.82-14.43,20.12.4,1.84.94,3.16,1.9,4.68,14.01,20.8,40.87,59.1,55.13,79.84-1.34,4.36-3.53,9.84-3.83,14.54-1,12.49,11.59,15.97,19.14,6.7,6.75-8.02,12.39-18.12,13.76-28.82,0,0,4.15-33.3,4.15-33.3.53-4.15,1-8.83,2.81-12.74,3.78-8.87,13.13-14.83,22.76-14.94,7.08-.27,13.66,3.4,19.44,7.27,4.9,3.63,10.42,6.74,16.67,7.37,2.81.35,7.19.19,10.19.22,2.65.02,5.5,1.92,5.38,4.81-.13,6.47-.56,29.7-.77,35.75-.15,5.25-.02,11.03,2.42,15.92,3.04,6.74,9.48,11.79,16.67,13.56,6.1,1.64,15.05,1.3,15.77-6.76l4.05-47.06c.4-3.8,1.23-8.14,2.58-11.71,5.08-14.2,17.77-25.66,32.55-28.95,5.04-.91,15.19-2.59,20.26-3.36,6.46-.36,12.63-5.92,11.53-12.88Zm-76.96,100.74h.14s-.14.01-.14.01c.21,5.32-.62,4.89-5.61,4.31-8.98-1.06-15.82-7.9-16.82-16.91-.52-4.68-.06-9.61.05-14.35l.5-22.78c.05-1.82.17-3.49.12-5.44-.17-6.09-4.77-10.67-11.18-11.13-3.08-.22-6.27.1-9.29-.21-3.99-.4-7.65-1.79-11.55-4.36-7.91-5.28-17.46-11.33-28.08-10.29-9.76.87-18.54,6.05-24.09,14.21-4.18,6.14-5.08,13.57-5.94,20.75-2.47,18.21-1.35,37.41-12.96,52.87-1.84,2.72-5.68,8.36-9.2,7.04-4.08-1.51-1.57-8.94-.37-12.52,1.18-3.83,3.39-7.49.92-11.46-15.77-23.63-33.36-47.51-49.35-71.18-3.36-4.85-8.21-10.01-6.26-16.08,3.69-9.91,13.14-8.17,18.8-1.33,8.09,9.06,12.71,23.24,18.32,34.42,1.55,3.41,3.16,6.94,6.68,8.78,4.38,2.29,10.1,1.35,14.23-2.36,6.22-5.62,5.67-15.95,6.39-24.2.24-2.43-.28-5.16,1.72-6.79,17.87-13.57,39.9-16.3,62.54-15.74,22.67-.13,43.12.14,64.99.2,2.62-.04,51.61.18,52.74.15,5.1,0,14.47-1.24,13.36,6.06-.98,4.36-7.99,4.99-13.13,5.46-22.38,2.08-40.16,10.99-49.76,32.47-4,9.18-4.65,19.54-5.32,29.54-.61,10.32-1.93,20.53-2.47,30.85Z"/>
</svg>